<?xml version="1.0" standalone="no"?><!DOCTYPE svg PUBLIC "-//W3C//DTD SVG 1.1//EN" "http://www.w3.org/Graphics/SVG/1.1/DTD/svg11.dtd"><svg t="1579128735492" class="icon" viewBox="0 0 1024 1024" version="1.1" xmlns="http://www.w3.org/2000/svg" p-id="4935" xmlns:xlink="http://www.w3.org/1999/xlink" width="200" height="200"><defs><style type="text/css"></style></defs><path d="M512 122c-215.4 0-390 174.6-390 390s174.6 390 390 390 390-174.6 390-390-174.6-390-390-390z m225 413c0 6.6-5.4 12-12 12H547v178c0 6.6-5.4 12-12 12h-46c-6.6 0-12-5.4-12-12V547H299c-6.6 0-12-5.4-12-12v-46c0-6.6 5.4-12 12-12h178V299c0-6.6 5.4-12 12-12h46c6.6 0 12 5.4 12 12v178h178c6.6 0 12 5.4 12 12v46z" fill="#276DED" p-id="4936"></path></svg>