<svg xmlns="http://www.w3.org/2000/svg" viewBox="0 0 95.68 102.45"><defs><style>.cls-1{fill:none;stroke:#276ded;stroke-miterlimit:10;stroke-width:6px;}</style></defs><title>contact</title><g id="图层_2" data-name="图层 2"><g id="图层_4" data-name="图层 4"><path class="cls-1" d="M64.71,62.38a20.9,20.9,0,0,0-4.34,2.24c-2.16,1.39-3.87,2.47-14.9-9.49l-1.32-1.44C33.3,41.92,34.38,39.78,34.78,39c.22-.44.47-.86.74-1.3.39-.67.8-1.35,1.17-2.1h0a18,18,0,0,0,1-2.46c2.11-6.32-2.7-15-5.74-19.68S24.33,3.11,20.08,3A17.32,17.32,0,0,0,5.33,12.67,23.92,23.92,0,0,0,3,23.55C3,40.28,16.19,56.81,29.06,70.77S57.23,99.06,73,99.45c10.87.27,15.71-6.1,17.63-9.92a18.8,18.8,0,0,0,2.08-7.78c0-3.61-3.21-7.93-9.53-12.83-4.3-3.35-12.43-8.64-18.44-6.54Z"/></g></g></svg>