<svg xmlns="http://www.w3.org/2000/svg" width="19.2" height="19.204" viewBox="0 0 19.2 19.204">
  <path id="Icon_ionic-ios-pricetag" data-name="Icon ionic-ios-pricetag" d="M20.219,3.375H14.872a.629.629,0,0,0-.444.183L3.74,14.246a1.255,1.255,0,0,0,0,1.77l5.09,5.09a1.255,1.255,0,0,0,1.77,0L21.284,10.422a.629.629,0,0,0,.183-.444V4.628A1.247,1.247,0,0,0,20.219,3.375ZM18.144,8.238a1.392,1.392,0,1,1,1.231-1.231A1.393,1.393,0,0,1,18.144,8.238Z" transform="translate(-2.767 -2.875)" fill="none" stroke="#276ded" stroke-width="1"/>
</svg>
