<svg xmlns="http://www.w3.org/2000/svg" width="86.103" height="94.4" viewBox="0 0 86.103 94.4">
  <defs>
    <style>
      .cls-1 {
        fill: #fffaef;
      }

      .cls-2 {
        fill: #3c2a34;
      }

      .cls-3 {
        fill: #ee4623;
      }

      .cls-4 {
        fill: #98d5cc;
      }

      .cls-5 {
        fill: #fffdf2;
      }
    </style>
  </defs>
  <g id="图层_2" data-name="图层 2" transform="translate(0 0.009)">
    <g id="图层_2-2" data-name="图层 2" transform="translate(0 -0.009)">
      <path id="路径_34" data-name="路径 34" class="cls-1" d="M58.307,377.409s-21.928,1.843-23.807,2.2,9.1-10.81,20.378-16.157C54.878,363.45,58.766,366.1,58.307,377.409Z" transform="translate(-26.908 -285.215)"/>
      <path id="路径_35" data-name="路径 35" class="cls-1" d="M250.063,371.291s21.956,1.539,23.835,1.871-11.408-11.449-22.758-16.641C251.139,356.52,249.443,359.986,250.063,371.291Z" transform="translate(-196.13 -279.777)"/>
      <path id="路径_36" data-name="路径 36" class="cls-1" d="M13.828,227.484H0a31.423,31.423,0,0,1,12.235-5.224S-6.277,178.975,38.9,175.12c51.294-4.372,34.225,47.14,34.225,47.14A31.425,31.425,0,0,1,86.1,227.37Z" transform="translate(0 -137.217)"/>
      <path id="路径_37" data-name="路径 37" class="cls-2" d="M196.481,174.722s-7.661,31.907,9.968,34.7,19.723,11.955,19.723,11.955S242.164,173.8,196.481,174.722Z" transform="translate(-152.889 -137.101)"/>
      <path id="路径_38" data-name="路径 38" class="cls-2" d="M48.1,205.79s4.1,8.21.945,14.329-10.855,7.833-10.509,15.657C38.534,235.777,32.466,216.2,48.1,205.79Z" transform="translate(-29.33 -161.492)"/>
      <path id="路径_39" data-name="路径 39" class="cls-2" d="M69.435,39.7s9.114-3.052,8.2-10.117c-1.449-11.193-33.96-4.262-33.794-9.056S46.272,6.539,60.478,4.018c0,0-16.848-10.642-24.278,2.673s-.685,19.157,1.619,20.942a14.277,14.277,0,0,1-5.278-5.683S30.6,30.473,38.958,32.806c6.376,1.782,29.758-1.774,31.373,0s-1.382,5.648-1.382,5.648Z" transform="translate(-25.384 0.009)"/>
      <path id="路径_40" data-name="路径 40" class="cls-2" d="M122.7,184.535l-4.172-17s-11.193,6.275-5.784,22.582Z" transform="translate(-87.319 -131.467)"/>
      <path id="路径_41" data-name="路径 41" class="cls-3" d="M119.544,193.966l-4.91-12.536s-6.193,4.643-3.2,16.764C111.433,198.194,118.37,194.494,119.544,193.966Z" transform="translate(-86.806 -142.375)"/>
      <path id="路径_42" data-name="路径 42" class="cls-2" d="M247.82,185.616l3.6-17.136s11.408,5.9,6.535,22.386Z" transform="translate(-194.476 -132.213)"/>
      <path id="路径_43" data-name="路径 43" class="cls-3" d="M259.88,194.52l4.488-12.7s6.346,4.432,3.76,16.648C268.128,198.474,261.07,195.006,259.88,194.52Z" transform="translate(-203.941 -142.681)"/>
      <path id="路径_44" data-name="路径 44" class="cls-1" d="M125.567,213.049s-1.991-5.87-3.384-5.719.676,5.577.676,5.577-1.292-2.047-1.961-1.582c-1.322.919,1.423,4.245,1.423,4.245s-1.539-3.582-1.029-3.444a11.861,11.861,0,0,1,2.14,1.642s-1.7-4.24-.431-4.09S125.567,213.049,125.567,213.049Z" transform="translate(-94.592 -162.698)"/>
      <path id="路径_45" data-name="路径 45" class="cls-1" d="M268.84,215.594s1.793-5.932,3.19-5.829-.489,5.6-.489,5.6,1.223-2.09,1.907-1.647c1.35.874-1.281,4.29-1.281,4.29s1.418-3.631.913-3.468A12.253,12.253,0,0,0,271,216.249s1.558-4.294.3-4.1S268.84,215.594,268.84,215.594Z" transform="translate(-210.972 -164.61)"/>
      <path id="路径_46" data-name="路径 46" class="cls-1" d="M90.733,259.151s-3.605-36.083,23.032-35.826c28.43.273,32.092,41.617,9.964,44.557C98.037,271.292,90.733,259.151,90.733,259.151Z" transform="translate(-71.075 -175.251)"/>
      <path id="路径_47" data-name="路径 47" class="cls-2" d="M231.959,326.08s6.042,3.384,5.844,4.148-9.159,14.422-13.021,15.19S209.93,326.9,209.93,326.9,230.293,331.911,231.959,326.08Z" transform="translate(-164.742 -255.889)"/>
      <path id="路径_48" data-name="路径 48" class="cls-2" d="M66.377,326.08s-6.042,3.384-5.844,4.148,9.159,14.422,13.023,15.19S88.128,326.9,88.128,326.9,68.043,331.911,66.377,326.08Z" transform="translate(-47.499 -255.889)"/>
      <path id="路径_49" data-name="路径 49" class="cls-2" d="M108.31,222.65v23.079a49.1,49.1,0,0,1-18.97,11.49S74.929,227.609,108.31,222.65Z" transform="translate(-67.681 -174.722)"/>
      <path id="路径_50" data-name="路径 50" class="cls-2" d="M210.461,222.65,210,245.729a48.992,48.992,0,0,0,18.968,11.49C228.961,257.219,244.619,224.615,210.461,222.65Z" transform="translate(-164.797 -174.722)"/>
      <path id="路径_51" data-name="路径 51" class="cls-4" d="M128.562,284.657a7.5,7.5,0,1,1-7.626-7.521A7.574,7.574,0,0,1,128.562,284.657Z" transform="translate(-89.12 -217.48)"/>
      <path id="路径_52" data-name="路径 52" class="cls-2" d="M132.2,290.846a6.129,6.129,0,1,1-6.225-5.859A6.047,6.047,0,0,1,132.2,290.846Z" transform="translate(-94.128 -223.64)"/>
      <path id="路径_53" data-name="路径 53" class="cls-5" d="M162.507,289.8a1.214,1.214,0,1,1-1.233-1.292,1.261,1.261,0,0,1,1.233,1.292Z" transform="translate(-125.624 -226.406)"/>
      <path id="路径_54" data-name="路径 54" class="cls-4" d="M231.671,284.657a7.5,7.5,0,1,1-7.624-7.521A7.572,7.572,0,0,1,231.671,284.657Z" transform="translate(-170.036 -217.48)"/>
      <path id="路径_55" data-name="路径 55" class="cls-2" d="M235.265,290.846a6.138,6.138,0,1,1-6.242-5.859A6.047,6.047,0,0,1,235.265,290.846Z" transform="translate(-174.995 -223.64)"/>
      <path id="路径_56" data-name="路径 56" class="cls-5" d="M265.617,289.8a1.214,1.214,0,1,1-1.233-1.292,1.261,1.261,0,0,1,1.233,1.292Z" transform="translate(-206.539 -226.406)"/>
      <path id="路径_57" data-name="路径 57" class="cls-1" d="M244.067,319s-4.832,7.319-18.837,9.187C225.23,328.193,238.69,327.66,244.067,319Z" transform="translate(-176.749 -250.333)"/>
      <path id="路径_58" data-name="路径 58" class="cls-1" d="M247.67,331.39s-7.293,7.409-21.54,6.9C226.13,338.291,241.228,339.27,247.67,331.39Z" transform="translate(-177.455 -260.056)"/>
      <path id="路径_59" data-name="路径 59" class="cls-1" d="M246.312,354.48s-7.1,5.866-20.322,2.333C225.992,356.813,238.871,361.437,246.312,354.48Z" transform="translate(-177.345 -278.176)"/>
      <path id="路径_60" data-name="路径 60" class="cls-1" d="M87.62,319s4.832,7.319,18.834,9.187C106.454,328.193,92.995,327.66,87.62,319Z" transform="translate(-68.76 -250.333)"/>
      <path id="路径_61" data-name="路径 61" class="cls-1" d="M74.15,331.39s7.286,7.409,21.542,6.9C95.692,338.291,80.595,339.27,74.15,331.39Z" transform="translate(-58.189 -260.056)"/>
      <path id="路径_62" data-name="路径 62" class="cls-1" d="M80,354.48s7.1,5.866,20.322,2.333C100.313,356.813,87.43,361.437,80,354.48Z" transform="translate(-62.78 -278.176)"/>
      <path id="路径_63" data-name="路径 63" class="cls-2" d="M182.189,355.8s.538,4.8,4.09,4.505,3.875-4.884,3.875-4.884.943,5.779-3.982,5.575C182.078,360.827,181.623,357.826,182.189,355.8Z" transform="translate(-142.818 -278.914)"/>
      <path id="路径_64" data-name="路径 64" class="cls-2" d="M199.9,349.94l.338,5.982-.964.224V350.03Z" transform="translate(-156.377 -274.613)"/>
      <path id="路径_65" data-name="路径 65" class="cls-3" d="M177.13,340.458s5.112-7.256,9.611.2c0,0-1.677-2.775-4.615-2.628A8.511,8.511,0,0,0,177.13,340.458Z" transform="translate(-139.003 -264.688)"/>
      <path id="路径_66" data-name="路径 66" class="cls-1" d="M134.279,253.007s-3.212-4.432-5.859,1.033C128.42,254.042,131.472,251.205,134.279,253.007Z" transform="translate(-100.777 -197.214)"/>
      <path id="路径_67" data-name="路径 67" class="cls-1" d="M255.114,253.267s-.23-5.47-5.454-2.368C249.664,250.89,253.773,250.212,255.114,253.267Z" transform="translate(-195.92 -196.143)"/>
      <path id="路径_68" data-name="路径 68" class="cls-3" d="M186.519,340.567s3.756-1.464,6.21.411a22.777,22.777,0,0,1-2.841,2.4C189.481,343.46,186.4,341.165,186.519,340.567Z" transform="translate(-146.368 -266.831)"/>
      <path id="路径_69" data-name="路径 69" class="cls-1" d="M80,82.35s.861,4.464,8.18,4C88.164,86.352,80.077,88.517,80,82.35Z" transform="translate(-62.78 -64.622)"/>
      <path id="路径_70" data-name="路径 70" class="cls-2" d="M9.665,395.13s3.369,2.637,4.163,5.213H0S5.325,396.114,9.665,395.13Z" transform="translate(0 -310.076)"/>
      <path id="路径_71" data-name="路径 71" class="cls-2" d="M339.893,395.13s-3.369,2.637-4.163,5.213h13.834S346.695,396.908,339.893,395.13Z" transform="translate(-263.464 -310.076)"/>
      <path id="路径_72" data-name="路径 72" class="cls-2" d="M47.668,386s1.937,6.158.575,10.039L35.27,397.3S40.772,389.478,47.668,386Z" transform="translate(-27.678 -302.911)"/>
      <path id="路径_73" data-name="路径 73" class="cls-2" d="M299.107,383.67s-1.81,5.741-.454,9.622l13.561,1.182S306,387.148,299.107,383.67Z" transform="translate(-233.972 -301.083)"/>
      <path id="路径_74" data-name="路径 74" class="cls-1" d="M50.1,430.53s-2.112.762-3.364,1.279C46.74,431.809,47.046,430.6,50.1,430.53Z" transform="translate(-36.679 -337.856)"/>
      <path id="路径_75" data-name="路径 75" class="cls-1" d="M46.8,425.26s-2.112.762-3.364,1.279C43.44,426.539,43.748,425.333,46.8,425.26Z" transform="translate(-34.089 -333.72)"/>
      <path id="路径_76" data-name="路径 76" class="cls-1" d="M331.37,424.55s2.114.762,3.367,1.279C334.734,425.829,334.429,424.623,331.37,424.55Z" transform="translate(-260.042 -333.163)"/>
      <path id="路径_77" data-name="路径 77" class="cls-1" d="M334.67,419.28s2.112.762,3.364,1.279C338.034,420.559,337.729,419.353,334.67,419.28Z" transform="translate(-262.632 -329.028)"/>
      <path id="路径_78" data-name="路径 78" class="cls-1" d="M367.85,411.12s2.043.932,3.25,1.55C371.111,412.67,370.9,411.443,367.85,411.12Z" transform="translate(-288.67 -322.624)"/>
      <path id="路径_79" data-name="路径 79" class="cls-1" d="M371.57,406.13s2.043.934,3.25,1.552C374.82,407.682,374.612,406.455,371.57,406.13Z" transform="translate(-291.589 -318.708)"/>
      <path id="路径_80" data-name="路径 80" class="cls-1" d="M21.82,411.12s-2.043.932-3.25,1.55C18.57,412.67,18.779,411.443,21.82,411.12Z" transform="translate(-14.573 -322.624)"/>
      <path id="路径_81" data-name="路径 81" class="cls-1" d="M18.149,406.13s-2.043.934-3.25,1.552C14.888,407.682,15.1,406.455,18.149,406.13Z" transform="translate(-11.691 -318.708)"/>
    </g>
  </g>
</svg>
