<svg xmlns="http://www.w3.org/2000/svg" xmlns:xlink="http://www.w3.org/1999/xlink" width="56" height="70.61" viewBox="0 0 56 70.61">
  <defs>
    <style>
      .cls-1 {
        fill: #fff;
      }

      .cls-2 {
        clip-path: url(#clip-path);
      }

      .cls-3 {
        fill: url(#linear-gradient);
      }

      .cls-4, .cls-6 {
        fill: #276ded;
      }

      .cls-5 {
        fill: #8cc7ff;
      }

      .cls-6 {
        font-size: 11px;
        font-family: SegoeUI-Semibold, Segoe UI;
        font-weight: 600;
      }
    </style>
    <clipPath id="clip-path">
      <rect id="矩形_207" data-name="矩形 207" class="cls-1" width="56" height="70.61" transform="translate(49 459.39)"/>
    </clipPath>
    <linearGradient id="linear-gradient" x1="0.5" x2="0.5" y2="1" gradientUnits="objectBoundingBox">
      <stop offset="0" stop-color="#8cc7ff"/>
      <stop offset="1" stop-color="#276ded"/>
    </linearGradient>
  </defs>
  <g id="蒙版组_12" data-name="蒙版组 12" class="cls-2" transform="translate(-49 -459.39)">
    <g id="图层_2" data-name="图层 2" transform="translate(52 466.378)">
      <g id="图层_2-2" data-name="图层 2" transform="translate(0 0)">
        <path id="路径_28" data-name="路径 28" class="cls-3" d="M4.265,0h36.19a4.265,4.265,0,0,1,2.772,1.024L49.507,6.4A4.265,4.265,0,0,1,51,9.635V52.777a4.265,4.265,0,0,1-4.265,4.265H4.265A4.265,4.265,0,0,1,0,52.777V4.265A4.265,4.265,0,0,1,4.265,0Z" transform="translate(0 0)"/>
        <path id="路径_29" data-name="路径 29" class="cls-4" d="M54.361,7.024l-6.9-5.9A4.683,4.683,0,0,0,44.421,0h-.714V6.829a4.683,4.683,0,0,0,4.683,4.683H56V10.58a4.683,4.683,0,0,0-1.639-3.555Z" transform="translate(-5 0)"/>
        <rect id="矩形_211" data-name="矩形 211" class="cls-5" width="36.561" height="1.756" rx="0.878" transform="translate(7.22 35.44)"/>
        <rect id="矩形_212" data-name="矩形 212" class="cls-5" width="36.561" height="1.756" rx="0.878" transform="translate(7.22 39.87)"/>
        <rect id="矩形_213" data-name="矩形 213" class="cls-5" width="31.732" height="1.756" rx="0.878" transform="translate(9.634 44.299)"/>
        <text id="GPA" class="cls-6" transform="translate(14.415 28.961)"><tspan x="0" y="0">GPA</tspan></text>
      </g>
    </g>
  </g>
</svg>
