<?xml version="1.0" encoding="utf-8"?>
<!-- Generator: Adobe Illustrator 23.0.0, SVG Export Plug-In . SVG Version: 6.00 Build 0)  -->
<svg version="1.1" id="图层_1" xmlns="http://www.w3.org/2000/svg" xmlns:xlink="http://www.w3.org/1999/xlink" x="0px" y="0px"
	 viewBox="0 0 94 96" style="enable-background:new 0 0 94 96;" xml:space="preserve">
<style type="text/css">
	.st0{fill:url(#SVGID_1_);}
	.st1{fill:url(#SVGID_2_);}
	.st2{fill:url(#SVGID_3_);}
	.st3{fill:url(#SVGID_4_);}
	.st4{fill:url(#SVGID_5_);}
	.st5{fill:url(#SVGID_6_);}
	.st6{fill:url(#SVGID_7_);}
	.st7{fill:url(#SVGID_8_);}
	.st8{fill:url(#SVGID_9_);}
	.st9{fill:url(#SVGID_10_);}
	.st10{fill:url(#SVGID_11_);}
	.st11{fill:url(#SVGID_12_);}
	.st12{fill:url(#SVGID_13_);}
	.st13{fill:url(#SVGID_14_);}
	.st14{fill:url(#SVGID_15_);}
	.st15{fill:url(#SVGID_16_);}
	.st16{fill:url(#SVGID_17_);}
	.st17{fill:url(#SVGID_18_);}
</style>
<g>
	<g>
		<linearGradient id="SVGID_1_" gradientUnits="userSpaceOnUse" x1="45.4937" y1="51.858" x2="3.0771" y2="9.4414">
			<stop  offset="0.102" style="stop-color:#2E2EFF"/>
			<stop  offset="0.8938" style="stop-color:#2C79FF"/>
		</linearGradient>
		<path class="st0" d="M45.1,2H15.2C9,2,4,6.9,4,13v1.2v50.3c50.5,0,52.3-33.1,52.3-33.1V14.3V13C56.3,6.9,51.3,2,45.1,2z
			 M37.7,49.8h-15c-2.1,0-3.7-1.6-3.7-3.7c0-2,1.7-3.7,3.7-3.7h15c2.1,0,3.7,1.6,3.7,3.7C41.4,48.2,39.7,49.8,37.7,49.8z M37.7,27.8
			h-15c-2.1,0-3.7-1.6-3.7-3.7c0-2,1.7-3.7,3.7-3.7h15c2.1,0,3.7,1.6,3.7,3.7C41.4,26.1,39.7,27.8,37.7,27.8z"/>
	</g>
	<g>
		<linearGradient id="SVGID_2_" gradientUnits="userSpaceOnUse" x1="46.9017" y1="90.2987" x2="47.3544" y2="14.199">
			<stop  offset="5.574999e-02" style="stop-color:#2E2EFF"/>
			<stop  offset="0.6798" style="stop-color:#2C79FF"/>
		</linearGradient>
		<path class="st1" d="M78.8,31.4H56.3c0,0-1.9,33.1-52.3,33.1V83c0,6.1,5,11,11.2,11h63.6C85,94,90,89.1,90,83V42.5
			C90,36.4,85,31.4,78.8,31.4z M37.7,71.9h-15c-2.1,0-3.7-1.6-3.7-3.7c0-2,1.7-3.7,3.7-3.7h15c2.1,0,3.7,1.6,3.7,3.7
			C41.4,70.3,39.7,71.9,37.7,71.9z M76.9,71.9H62c-2.1,0-3.7-1.6-3.7-3.7c0-2,1.7-3.7,3.7-3.7h15c2.1,0,3.7,1.6,3.7,3.7
			C80.7,70.3,79,71.9,76.9,71.9z M76.9,49.8H62c-2.1,0-3.7-1.6-3.7-3.7c0-2,1.7-3.7,3.7-3.7h15c2.1,0,3.7,1.6,3.7,3.7
			C80.7,48.2,79,49.8,76.9,49.8z"/>
	</g>
</g>
</svg>
