<?xml version="1.0" encoding="utf-8"?>
<!-- Generator: Adobe Illustrator 23.0.0, SVG Export Plug-In . SVG Version: 6.00 Build 0)  -->
<svg version="1.1" id="图层_1" xmlns="http://www.w3.org/2000/svg" xmlns:xlink="http://www.w3.org/1999/xlink" x="0px" y="0px"
	 viewBox="0 0 94 96" style="enable-background:new 0 0 94 96;" xml:space="preserve">
<style type="text/css">
	.st0{fill:url(#SVGID_1_);}
	.st1{fill:url(#SVGID_2_);}
	.st2{fill:url(#SVGID_3_);}
	.st3{fill:url(#SVGID_4_);}
	.st4{fill:url(#SVGID_5_);}
	.st5{fill:url(#SVGID_6_);}
	.st6{fill:url(#SVGID_7_);}
	.st7{fill:url(#SVGID_8_);}
	.st8{fill:url(#SVGID_9_);}
	.st9{fill:url(#SVGID_10_);}
	.st10{fill:url(#SVGID_11_);}
	.st11{fill:url(#SVGID_12_);}
	.st12{fill:url(#SVGID_13_);}
	.st13{fill:url(#SVGID_14_);}
	.st14{fill:url(#SVGID_15_);}
	.st15{fill:url(#SVGID_16_);}
	.st16{fill:url(#SVGID_17_);}
	.st17{fill:url(#SVGID_18_);}
</style>
<g>
	<linearGradient id="SVGID_1_" gradientUnits="userSpaceOnUse" x1="65.7686" y1="84.2064" x2="35.2455" y2="13.198">
		<stop  offset="7.643399e-02" style="stop-color:#2E2EFF"/>
		<stop  offset="0.6078" style="stop-color:#2C79FF"/>
	</linearGradient>
	<path class="st0" d="M84.8,74.4c-0.2-1.4,0.2-2.7,1-3.9C90.3,64,93,56.3,93,48c0-11.1-4.7-21.2-12.5-28.7
		c0.8,13.7-1.7,57.1-62.6,61.2c7.9,5.9,18,9.4,29.1,9.4c5.7,0,11.2-1,16.3-2.7c1-0.3,2-0.4,3.1-0.2l13.2,2.9
		c3.8,0.8,7.2-2.3,6.7-6.1L84.8,74.4z"/>
	<linearGradient id="SVGID_2_" gradientUnits="userSpaceOnUse" x1="51.2251" y1="87.8228" x2="33.4294" y2="-1.0892">
		<stop  offset="0.2887" style="stop-color:#2E2EFF"/>
		<stop  offset="0.8086" style="stop-color:#2C79FF"/>
	</linearGradient>
	<path class="st1" d="M80.5,19.3c-0.8-0.8-1.6-1.5-2.5-2.2C69.9,10.2,59,6,47,6C21.6,6,1,24.8,1,48c0,11,4.6,20.9,12.2,28.4
		c1.5,1.5,3.1,2.8,4.8,4.1C78.8,76.3,81.3,32.9,80.5,19.3z M24.9,49.8c-3,0-5.5-2.4-5.5-5.5c0-3,2.5-5.5,5.5-5.5s5.5,2.4,5.5,5.5
		C30.4,47.3,28,49.8,24.9,49.8z M47,49.8c-3,0-5.5-2.4-5.5-5.5c0-3,2.5-5.5,5.5-5.5s5.5,2.4,5.5,5.5C52.5,47.3,50,49.8,47,49.8z
		 M69.1,49.8c-3,0-5.5-2.4-5.5-5.5c0-3,2.5-5.5,5.5-5.5s5.5,2.4,5.5,5.5C74.6,47.3,72.1,49.8,69.1,49.8z"/>
</g>
</svg>
