<?xml version="1.0" encoding="utf-8"?>
<!-- Generator: Adobe Illustrator 23.0.0, SVG Export Plug-In . SVG Version: 6.00 Build 0)  -->
<svg version="1.1" id="图层_1" xmlns="http://www.w3.org/2000/svg" xmlns:xlink="http://www.w3.org/1999/xlink" x="0px" y="0px"
	 viewBox="0 0 26 28" style="enable-background:new 0 0 26 28;" xml:space="preserve">
<path id="路径_1" d="M25,17.3c0,0.9-0.7,1.6-1.6,1.6s-1.6-0.7-1.6-1.6v-6.5c0-0.9,0.7-1.6,1.6-1.6S25,9.9,25,10.8l0,0V17.3z
	 M5,20.6c-2.2,0-4-1.8-4-4c0,0,0,0,0-0.1v-4.9c0-2.2,1.7-4,3.9-4.1c0,0,0,0,0.1,0h1.9L12.7,2c1.4-1.3,3.6-1.3,4.9,0.1
	c0.7,0.7,1.1,1.7,1,2.7v18.6c0.1,1.9-1.3,3.5-3.2,3.7c-1,0.1-2-0.3-2.7-1.1l-5.8-5.4L5,20.6z M8,17.3l6.7,6.4
	c0.3,0.3,0.6,0.2,0.6-0.3V4.8c0-0.5-0.3-0.7-0.6-0.3L8,10.8H5c-0.4,0-0.8,0.3-0.8,0.7c0,0,0,0.1,0,0.1v4.9c0,0.4,0.3,0.8,0.7,0.8
	c0,0,0.1,0,0.1,0L8,17.3z"/>
</svg>
