<svg xmlns="http://www.w3.org/2000/svg" width="16" height="20.012" viewBox="0 0 16 20.012">
  <defs>
    <style>
      .cls-1 {
        fill: #276ded;
      }
    </style>
  </defs>
  <g id="Icon_ionic-ios-notifications" data-name="Icon ionic-ios-notifications" transform="translate(-6.761 -3.93)">
    <path id="路径_23" data-name="路径 23" class="cls-1" d="M17.016,30.989a2.36,2.36,0,0,0,2.408-2.653H14.6A2.361,2.361,0,0,0,17.016,30.989Z" transform="translate(-2.266 -7.047)"/>
    <path id="路径_24" data-name="路径 24" class="cls-1" d="M22.558,18.748c-.77-1.015-2.286-1.61-2.286-6.156,0-4.666-2.061-6.541-3.981-6.991-.18-.045-.31-.105-.31-.3V5.161a1.22,1.22,0,1,0-2.441,0v.145c0,.185-.13.25-.31.3-1.926.455-3.981,2.325-3.981,6.991,0,4.546-1.515,5.136-2.286,6.156a.993.993,0,0,0,.8,1.59h14.01A.993.993,0,0,0,22.558,18.748Z" transform="translate(0 0)"/>
  </g>
</svg>
