<svg xmlns="http://www.w3.org/2000/svg" xmlns:xlink="http://www.w3.org/1999/xlink" width="56" height="70.61" viewBox="0 0 56 70.61">
  <defs>
    <style>
      .cls-1 {
        fill: #fff;
      }

      .cls-2 {
        clip-path: url(#clip-path);
      }

      .cls-3 {
        fill: #276ded;
      }

      .cls-4 {
        fill: url(#linear-gradient);
      }

      .cls-5 {
        fill: #8cc7ff;
      }
    </style>
    <clipPath id="clip-path">
      <rect id="矩形_210" data-name="矩形 210" class="cls-1" width="56" height="70.61" transform="translate(309 459.39)"/>
    </clipPath>
    <linearGradient id="linear-gradient" x1="0.5" x2="0.5" y2="1" gradientUnits="objectBoundingBox">
      <stop offset="0" stop-color="#8cc7ff"/>
      <stop offset="1" stop-color="#276ded"/>
    </linearGradient>
  </defs>
  <g id="蒙版组_14" data-name="蒙版组 14" class="cls-2" transform="translate(-309 -459.39)">
    <g id="图层_2" data-name="图层 2" transform="translate(309 477.046)">
      <g id="图层_2-2" data-name="图层 2">
        <path id="路径_32" data-name="路径 32" class="cls-3" d="M28.233,9.879C41.779,13.3,50.151,12.25,56,9.611V4.2A4.2,4.2,0,0,0,51.8,0H4.2A4.2,4.2,0,0,0,0,4.2v7.488A35.276,35.276,0,0,1,4.788,9.844C11.776,7.73,19.444,7.74,28.233,9.879Z"/>
        <path id="路径_33" data-name="路径 33" class="cls-4" d="M27.937,11.067C15.575,8.061,6.909,9.663,0,13.055V31.1a4.2,4.2,0,0,0,4.2,4.2H51.8A4.2,4.2,0,0,0,56,31.1V10.958C49.975,13.528,41.442,14.474,27.937,11.067Z"/>
        <rect id="矩形_214" data-name="矩形 214" class="cls-5" width="12.388" height="1.575" rx="0.788" transform="translate(26.95 18.086)"/>
        <rect id="矩形_215" data-name="矩形 215" class="cls-5" width="8.062" height="1.575" rx="0.788" transform="translate(26.95 22.461)"/>
        <rect id="矩形_216" data-name="矩形 216" class="cls-5" width="19.075" height="1.575" rx="0.788" transform="translate(26.95 26.836)"/>
        <rect id="矩形_217" data-name="矩形 217" class="cls-5" width="11.375" height="14.875" rx="1.255" transform="translate(8.05 14.936)"/>
      </g>
    </g>
  </g>
</svg>
