<svg id="图层_1" data-name="图层 1" xmlns="http://www.w3.org/2000/svg" xmlns:xlink="http://www.w3.org/1999/xlink" viewBox="0 0 92 76"><defs><style>.cls-1{fill:url(#未命名的渐变_6);}.cls-2{fill:url(#未命名的渐变_5);}</style><linearGradient id="未命名的渐变_6" x1="57.3" y1="94.19" x2="32.77" y2="-7.78" gradientUnits="userSpaceOnUse"><stop offset="0.31" stop-color="#2e2eff"/><stop offset="0.61" stop-color="#2c79ff"/></linearGradient><linearGradient id="未命名的渐变_5" x1="46" y1="62.64" x2="46" y2="-29.36" gradientUnits="userSpaceOnUse"><stop offset="0.23" stop-color="#2e2eff"/><stop offset="0.57" stop-color="#2c79ff"/></linearGradient></defs><title>卡片</title><path class="cls-1" d="M0,54V64c0,6.62,4.74,12,10.61,12H81.39C87.25,76,92,70.63,92,64V28.78C85.5,34.75,62.93,50.09,0,54Zm83.16,8a1.88,1.88,0,0,1-1.75,2H70.76A1.87,1.87,0,0,1,69,62V54a1.86,1.86,0,0,1,1.75-2H81.41a1.87,1.87,0,0,1,1.75,2Z"/><path d="M81.39,0H10.61C4.75,0,0,5.37,0,12v6H92V12C92,5.37,87.25,0,81.39,0Z"/><path class="cls-2" d="M81.39,0H10.61C4.75,0,0,5.37,0,12v6H92V12C92,5.37,87.25,0,81.39,0Z"/><path d="M0,54c62.93-3.92,85.5-19.26,92-25.23V28H0Z"/><path class="cls-2" d="M0,54c62.93-3.92,85.5-19.26,92-25.23V28H0Z"/></svg>