<svg xmlns="http://www.w3.org/2000/svg" 
    xmlns:xlink="http://www.w3.org/1999/xlink" viewBox="0 0 305 336">
    <defs>
        <style>.cls-1{fill:url(#未命名的渐变_39);}.cls-2{fill:#276ded;}.cls-3{fill:#8cc7ff;}</style>
        <linearGradient id="未命名的渐变_39" x1="143.57" x2="143.57" y2="321" gradientUnits="userSpaceOnUse">
            <stop offset="0" stop-color="#8cc7ff"/>
            <stop offset="1" stop-color="#276ded"/>
        </linearGradient>
    </defs>
    <title>selectcourse</title>
    <g id="图层_2" data-name="图层 2">
        <g id="图层_2-2" data-name="图层 2">
            <path class="cls-1" d="M262.07,321H26.28A29.1,29.1,0,0,1,18,320,25.21,25.21,0,0,1,.73,301.73a30,30,0,0,1-.66-6.94V29.21c0-1.24,0-2.49,0-3.73A25.64,25.64,0,0,1,3.68,12.05,25.25,25.25,0,0,1,25.07,0H261a28.12,28.12,0,0,1,9,1.29,25.2,25.2,0,0,1,16.64,19,31.68,31.68,0,0,1,.44,6V295.59a25.62,25.62,0,0,1-4.18,14.25A25.19,25.19,0,0,1,262.07,321Z"/>
            <path class="cls-2" d="M25.07,0H262a25.25,25.25,0,0,1,20.18,10.09A25,25,0,0,1,287,23.74c.12,2.27,0,4.57,0,6.84V40.73c0,.46.23,2.05-.12,2.27-.19.12-.83,0-1,0H4.21a24.1,24.1,0,0,1-3.8,0c-.42-.07-.27.13-.34-.37a23.79,23.79,0,0,1,0-3.27V34.2c0-6.77-.58-13.66,2.42-20A25.23,25.23,0,0,1,25.07,0Z"/>
            <path class="cls-3" d="M112.57,134.52V84.66c0-2-.07-4,0-5.94a8.08,8.08,0,0,1,6.89-7.64,19.65,19.65,0,0,1,2.66-.08h44.19a8.18,8.18,0,0,1,6.52,3c2,2.51,1.74,5.47,1.74,8.44v51.72a8.16,8.16,0,0,1-8.33,8.33c-8.32,0-16.65,0-25,0H126.42c-2.4,0-5.12.33-7.5-.17A8.06,8.06,0,0,1,112.57,134.52Z"/>
            <path class="cls-3" d="M43.57,134.52V84.66c0-2-.07-4,0-5.94a8.08,8.08,0,0,1,6.89-7.64A19.65,19.65,0,0,1,53.12,71H97.31a8.18,8.18,0,0,1,6.52,3c2,2.51,1.74,5.47,1.74,8.44v51.72a8.16,8.16,0,0,1-8.33,8.33c-8.32,0-16.65,0-25,0H57.42c-2.4,0-5.12.33-7.5-.17A8.06,8.06,0,0,1,43.57,134.52Z"/>
            <path class="cls-3" d="M112.57,288.5V238.64c0-2-.07-4,0-5.94a8.08,8.08,0,0,1,6.89-7.64,19.65,19.65,0,0,1,2.66-.08h44.19a8.18,8.18,0,0,1,6.52,3c2,2.5,1.74,5.47,1.74,8.44v51.72a8.18,8.18,0,0,1-8.33,8.33c-8.32,0-16.65,0-25,0H126.42c-2.4,0-5.12.33-7.5-.17A8.06,8.06,0,0,1,112.57,288.5Z"/>
            <path class="cls-3" d="M112.57,211.51V161.65c0-2-.07-4,0-5.94a8.08,8.08,0,0,1,6.89-7.64,19.65,19.65,0,0,1,2.66-.08h44.19a8.18,8.18,0,0,1,6.52,3c2,2.5,1.74,5.47,1.74,8.44v51.72a8.17,8.17,0,0,1-8.33,8.33c-8.32,0-16.65,0-25,0H126.42c-2.4,0-5.12.33-7.5-.17A8.06,8.06,0,0,1,112.57,211.51Z"/>
            <path class="cls-3" d="M43.57,288.5V238.64c0-2-.07-4,0-5.94a8.08,8.08,0,0,1,6.89-7.64,19.65,19.65,0,0,1,2.66-.08H97.31a8.18,8.18,0,0,1,6.52,3c2,2.5,1.74,5.47,1.74,8.44v51.72a8.18,8.18,0,0,1-8.33,8.33c-8.32,0-16.65,0-25,0H57.42c-2.4,0-5.12.33-7.5-.17A8.06,8.06,0,0,1,43.57,288.5Z"/>
            <path class="cls-3" d="M43.57,211.51V161.65c0-2-.07-4,0-5.94a8.08,8.08,0,0,1,6.89-7.64,19.65,19.65,0,0,1,2.66-.08H97.31a8.18,8.18,0,0,1,6.52,3c2,2.5,1.74,5.47,1.74,8.44v51.72a8.17,8.17,0,0,1-8.33,8.33c-8.32,0-16.65,0-25,0H57.42c-2.4,0-5.12.33-7.5-.17A8.06,8.06,0,0,1,43.57,211.51Z"/>
            <path class="cls-3" d="M181.57,134.52V84.66c0-2-.07-4,0-5.94a8.08,8.08,0,0,1,6.89-7.64,19.65,19.65,0,0,1,2.66-.08h44.19a8.18,8.18,0,0,1,6.52,3c2,2.51,1.74,5.47,1.74,8.44v51.72a8.16,8.16,0,0,1-8.33,8.33c-8.32,0-16.65,0-25,0H195.42c-2.4,0-5.12.33-7.5-.17A8.06,8.06,0,0,1,181.57,134.52Z"/>
            <path class="cls-3" d="M181.57,288.5V238.64c0-2-.07-4,0-5.94a8.08,8.08,0,0,1,6.89-7.64,19.65,19.65,0,0,1,2.66-.08h44.19a8.18,8.18,0,0,1,6.52,3c2,2.5,1.74,5.47,1.74,8.44v51.72a8.18,8.18,0,0,1-8.33,8.33c-8.32,0-16.65,0-25,0H195.42c-2.4,0-5.12.33-7.5-.17A8.06,8.06,0,0,1,181.57,288.5Z"/>
            <path class="cls-3" d="M181.57,211.51V161.65c0-2-.07-4,0-5.94a8.08,8.08,0,0,1,6.89-7.64,19.65,19.65,0,0,1,2.66-.08h44.19a8.18,8.18,0,0,1,6.52,3c2,2.5,1.74,5.47,1.74,8.44v51.72a8.17,8.17,0,0,1-8.33,8.33c-8.32,0-16.65,0-25,0H195.42c-2.4,0-5.12.33-7.5-.17A8.06,8.06,0,0,1,181.57,211.51Z"/>
            <path class="cls-2" d="M242.2,162l-12.35,6.23c-.36.18-1.46,1-1.87.94-.15,0-.1-.11-.23-.27a21.41,21.41,0,0,1-1.65-3.28l-14.9-29.56c-1.58-3.13-3.16-6.24-4.72-9.37a5.12,5.12,0,0,1,1.56-6.79,50.21,50.21,0,0,1,5.8-3,5.09,5.09,0,0,1,6.84,2.39c.51,1,1,2,1.51,3L229,135.78l13,25.71Z"/>
            <path class="cls-2" d="M223.87,165.63l-12.44,6.27c-.28.15-1.48,1-1.8.91-.11,0-.13-.19-.22-.32a29.8,29.8,0,0,1-1.68-3.34l-14.86-29.46c-1.57-3.13-3.16-6.24-4.72-9.37a5.13,5.13,0,0,1,1.46-6.71,43.09,43.09,0,0,1,5.93-3,5.09,5.09,0,0,1,6.83,2.43c.53,1,1,2,1.55,3.06l6.74,13.37,13,25.71Z"/>
            <path class="cls-2" d="M207.5,171.65l-12.35,6.22c-.36.19-1.47,1-1.87.95-.15,0-.1-.11-.23-.28a20.19,20.19,0,0,1-1.64-3.25l-14.86-29.48q-2.38-4.73-4.76-9.44a5.14,5.14,0,0,1,1.33-6.67,20.51,20.51,0,0,1,2.93-1.55c1-.52,2-1.07,3.09-1.56A5.08,5.08,0,0,1,186,129c.51,1,1,2,1.51,3l6.79,13.47,13,25.72Z"/>
            <path class="cls-2" d="M175.1,157.74c-1.74.88-3.48,1.8-5.24,2.64a5.07,5.07,0,0,1-6.85-2.19c-1.23-2.3-2.36-4.67-3.53-7L146.4,125.25c-1.34-2.66-3.47-5.65-1.56-8.6,1.24-1.91,4-2.8,6-3.78a9.48,9.48,0,0,1,2.84-1.15,5.05,5.05,0,0,1,4.6,1.79,12.25,12.25,0,0,1,1.29,2.29l2.15,4.27,6.65,13.19,6.5,12.89,2,3.9a6.69,6.69,0,0,1,1,3.54A5,5,0,0,1,175.1,157.74Z"/>
            <path class="cls-2" d="M199.43,212.67a16.15,16.15,0,0,1-17.86-2.35c-2.63-2.34-4-5.47-5.54-8.53-3.4-6.74-6.87-13.45-10.2-20.23a10.22,10.22,0,0,1-.57-7.84c1-2.84,3.47-5.62,6.52-6.21a6.09,6.09,0,0,1,6.52,3.25c.31.57.59,1.16.88,1.74L190,194l9.25,18.35Z"/>
            <path class="cls-2" d="M236.52,204.05,213.21,215.8l-3.4,1.72a15.16,15.16,0,0,1-9.75,1.35c-5.08-1-8.69-4.43-11-8.93l-11.72-23.23L164.1,160.36c-1.34-2.67-3.24-5.57-.95-8.41a7.28,7.28,0,0,1,2.63-1.82l3.49-1.77,27.62-13.92c6.81-3.43,13.57-7,20.43-10.3a5.09,5.09,0,0,1,6.87,2.14c.29.53.55,1.08.82,1.62l5.4,10.71L244.74,167a72,72,0,0,1,3.53,7.36,24,24,0,0,1-11.75,29.66Z"/>
            <path class="cls-3" d="M44.07,24.67a9,9,0,1,1-7.36-8.85A9.09,9.09,0,0,1,44.07,24.67Z"/>
            <path class="cls-3" d="M99.07,24.67a9,9,0,1,1-7.36-8.85A9.09,9.09,0,0,1,99.07,24.67Z"/>
            <path class="cls-3" d="M71.57,24.67a9,9,0,1,1-7.36-8.85A9.09,9.09,0,0,1,71.57,24.67Z"/>
        </g>
    </g>
</svg>