<?xml version="1.0" encoding="utf-8"?>
<!-- Generator: Adobe Illustrator 22.1.0, SVG Export Plug-In . SVG Version: 6.00 Build 0)  -->
<svg version="1.1" id="图层_1" xmlns="http://www.w3.org/2000/svg" xmlns:xlink="http://www.w3.org/1999/xlink" x="0px" y="0px"
	 viewBox="0 0 94 96" style="enable-background:new 0 0 94 96;" xml:space="preserve">
<style type="text/css">
	.st0{fill:url(#SVGID_1_);}
	.st1{fill:url(#SVGID_2_);}
	.st2{fill:url(#SVGID_3_);}
</style>
<linearGradient id="SVGID_1_" gradientUnits="userSpaceOnUse" x1="88.7866" y1="42.2578" x2="88.3531" y2="44.424">
	<stop  offset="0.2887" style="stop-color:#2E2EFF"/>
	<stop  offset="0.8086" style="stop-color:#2C79FF"/>
</linearGradient>
<path class="st0" d="M88.6,42.5c0,0.6,0,1.1,0,1.7C88.6,43.7,88.6,43.1,88.6,42.5z"/>
<linearGradient id="SVGID_2_" gradientUnits="userSpaceOnUse" x1="32.5921" y1="80.2297" x2="53.8036" y2="5.7031">
	<stop  offset="0.2887" style="stop-color:#2E2EFF"/>
	<stop  offset="0.8086" style="stop-color:#2C79FF"/>
</linearGradient>
<path class="st1" d="M62.5,28.8c1-10.3-3.2-19.3-10.2-20.7C50.5,7.8,48.7,8,47,8.6c-1.7-0.6-3.5-0.8-5.3-0.4
	c-7,1.4-11.2,10.3-10.2,20.7c-9.5-4.2-19.3-3-22.8,3.3c-0.9,1.6-1.3,3.3-1.2,5.2c-1.1,1.5-1.8,3.1-2,4.9C4.6,49.3,11.8,56,22,58.2
	c-6.6,7.4-8.6,16.6-4.5,22c32.8-1.3,50.9-11.4,67.2-49.1C80.7,25.7,71.5,24.8,62.5,28.8z M47,57.1c-4,0-7.3-3.3-7.3-7.3
	c0-4,3.3-7.3,7.3-7.3c4,0,7.3,3.3,7.3,7.3C54.3,53.8,51,57.1,47,57.1z"/>
<linearGradient id="SVGID_3_" gradientUnits="userSpaceOnUse" x1="63.4535" y1="94.7779" x2="42.4746" y2="26.8434">
	<stop  offset="7.643399e-02" style="stop-color:#2E2EFF"/>
	<stop  offset="0.6078" style="stop-color:#2C79FF"/>
</linearGradient>
<path class="st2" d="M88.6,42.5c0,0.6,0,1.1,0,1.7c-0.6,6.3-7.4,12-16.5,14c6.9,7.7,8.8,17.5,3.9,22.7c-1.2,1.3-2.8,2.2-4.5,2.8
	c-1.1,1.5-2.4,2.7-4,3.5c-6.5,3-15.1-1.8-20.4-10.8c-5.2,9-13.9,13.7-20.4,10.8c-1.6-0.8-3-2-4-3.5c-1.8-0.5-3.3-1.4-4.5-2.8
	c-0.2-0.2-0.4-0.5-0.6-0.7c32.8-1.3,50.9-11.4,67.2-49.1c0.2,0.3,0.4,0.6,0.6,0.9c0.9,1.6,1.3,3.3,1.2,5.2c1.1,1.5,1.8,3.1,2.1,4.9
	C88.5,42.3,88.6,42.4,88.6,42.5z"/>
</svg>
