<svg xmlns="http://www.w3.org/2000/svg" xmlns:xlink="http://www.w3.org/1999/xlink" width="56" height="70.61" viewBox="0 0 56 70.61">
  <defs>
    <style>
      .cls-1 {
        fill: #fff;
      }

      .cls-2 {
        clip-path: url(#clip-path);
      }

      .cls-3 {
        fill: url(#linear-gradient);
      }

      .cls-4 {
        fill: #8cc7ff;
      }

      .cls-5 {
        fill: #276ded;
      }
    </style>
    <clipPath id="clip-path">
      <rect id="矩形_209" data-name="矩形 209" class="cls-1" width="56" height="70.61" transform="translate(179 459.39)"/>
    </clipPath>
    <linearGradient id="linear-gradient" x1="0.5" x2="0.5" y2="1" gradientUnits="objectBoundingBox">
      <stop offset="0" stop-color="#8cc7ff"/>
      <stop offset="1" stop-color="#276ded"/>
    </linearGradient>
  </defs>
  <g id="蒙版组_13" data-name="蒙版组 13" class="cls-2" transform="translate(-179 -459.39)">
    <g id="图层_2" data-name="图层 2" transform="translate(186.56 468.321)">
      <g id="图层_2-2" data-name="图层 2">
        <circle id="椭圆_9" data-name="椭圆 9" class="cls-3" cx="20.44" cy="20.44" r="20.44" transform="translate(0 11.868)"/>
        <path id="路径_30" data-name="路径 30" class="cls-4" d="M24.307,27.37l2.951,5.98a1.282,1.282,0,0,0,.966.7l6.593.958a1.284,1.284,0,0,1,.712,2.191l-4.78,4.655a1.287,1.287,0,0,0-.369,1.136l1.127,6.572a1.284,1.284,0,0,1-1.848,1.352l-5.9-3.1a1.287,1.287,0,0,0-1.2,0l-5.906,3.1a1.284,1.284,0,0,1-1.863-1.353l1.126-6.572a1.279,1.279,0,0,0-.369-1.141l-4.78-4.655A1.284,1.284,0,0,1,11.481,35l6.593-.958a1.282,1.282,0,0,0,.966-.7l2.951-5.98a1.286,1.286,0,0,1,2.316.007Z" transform="translate(-2.626 -6.739)"/>
        <path id="路径_31" data-name="路径 31" class="cls-5" d="M35.6,0H8.734A1.9,1.9,0,0,0,6.84,1.9v4.22A1.894,1.894,0,0,0,8.054,7.886l13.457,5.2a1.889,1.889,0,0,0,1.37,0L36.3,7.887a1.9,1.9,0,0,0,1.2-1.769V1.9A1.9,1.9,0,0,0,35.6,0Z" transform="translate(-1.73)"/>
      </g>
    </g>
  </g>
</svg>
