<?xml version="1.0" encoding="utf-8"?>
<!-- Generator: Adobe Illustrator 23.0.0, SVG Export Plug-In . SVG Version: 6.00 Build 0)  -->
<svg version="1.1" id="图层_1" xmlns="http://www.w3.org/2000/svg" xmlns:xlink="http://www.w3.org/1999/xlink" x="0px" y="0px"
	 viewBox="0 0 94 96" style="enable-background:new 0 0 94 96;" xml:space="preserve">
<style type="text/css">
	.st0{fill:url(#SVGID_1_);}
	.st1{fill:url(#SVGID_2_);}
	.st2{fill:url(#SVGID_3_);}
	.st3{fill:url(#SVGID_4_);}
	.st4{fill:url(#SVGID_5_);}
	.st5{fill:url(#SVGID_6_);}
	.st6{fill:url(#SVGID_7_);}
	.st7{fill:url(#SVGID_8_);}
	.st8{fill:url(#SVGID_9_);}
	.st9{fill:url(#SVGID_10_);}
	.st10{fill:url(#SVGID_11_);}
	.st11{fill:url(#SVGID_12_);}
	.st12{fill:url(#SVGID_13_);}
	.st13{fill:url(#SVGID_14_);}
	.st14{fill:url(#SVGID_15_);}
	.st15{fill:url(#SVGID_16_);}
	.st16{fill:url(#SVGID_17_);}
	.st17{fill:url(#SVGID_18_);}
</style>
<g>
	<g>
		<linearGradient id="SVGID_1_" gradientUnits="userSpaceOnUse" x1="46.2134" y1="63.5081" x2="41.6355" y2="50.9132">
			<stop  offset="0.1265" style="stop-color:#2E2EFF"/>
			<stop  offset="0.601" style="stop-color:#2C79FF"/>
		</linearGradient>
		<path class="st0" d="M46.6,54.5c-0.2,0.2-0.4,0.4-0.6,0.6l-3.4,9h7.7L46.6,54.5z"/>
		<linearGradient id="SVGID_2_" gradientUnits="userSpaceOnUse" x1="57.0974" y1="88.8323" x2="28.1356" y2="9.1519">
			<stop  offset="0.1265" style="stop-color:#2E2EFF"/>
			<stop  offset="0.601" style="stop-color:#2C79FF"/>
		</linearGradient>
		<path class="st1" d="M78.8,31.4H60.1c0,0-1.9,9.4-9.7,18.9l10.1,24.4h-6.1l-2.6-6.3H41l-2.2,6.3h-5.8l5.4-13.9
			C30.2,66,19.1,69.6,4,69.6v9.3C4,87.2,10.9,94,19.3,94h55.4C83.1,94,90,87.2,90,78.9V42.5C90,36.4,85,31.4,78.8,31.4z M67.9,50.5
			h-3.2v3.2c0,0.9-0.6,1.6-1.6,1.6c-1,0-1.6-0.6-1.6-1.6v-3.2h-3.2c-1,0-1.6-0.6-1.6-1.6c0-0.9,0.6-1.6,1.6-1.6h3.2v-3.2
			c0-0.9,0.6-1.6,1.6-1.6c1,0,1.6,0.6,1.6,1.6v3.2h3.2c1,0,1.6,0.6,1.6,1.6C69.5,49.8,68.8,50.5,67.9,50.5z"/>
	</g>
	<linearGradient id="SVGID_3_" gradientUnits="userSpaceOnUse" x1="32.0435" y1="109.8348" x2="32.0435" y2="-40.0512">
		<stop  offset="0.2787" style="stop-color:#2E2EFF"/>
		<stop  offset="0.7223" style="stop-color:#2C79FF"/>
	</linearGradient>
	<path class="st2" d="M48.9,2H19.3C10.9,2,4,8.8,4,17.1v14.4v38.2c15.1,0,26.2-3.7,34.3-8.7l5.2-13.3h5.8l1.1,2.7
		c7.8-9.5,9.7-18.9,9.7-18.9V13C60.1,6.9,55.1,2,48.9,2z M39.5,38.8h-15c-2.1,0-3.7-1.6-3.7-3.7c0-2,1.7-3.7,3.7-3.7h15
		c2.1,0,3.7,1.6,3.7,3.7C43.3,37.2,41.6,38.8,39.5,38.8z M39.5,24.1h-15c-2.1,0-3.7-1.6-3.7-3.7c0-2,1.7-3.7,3.7-3.7h15
		c2.1,0,3.7,1.6,3.7,3.7C43.3,22.4,41.6,24.1,39.5,24.1z"/>
</g>
</svg>
