<?xml version="1.0" encoding="utf-8"?>
<!-- Generator: Adobe Illustrator 23.0.0, SVG Export Plug-In . SVG Version: 6.00 Build 0)  -->
<svg version="1.1" id="图层_1" xmlns="http://www.w3.org/2000/svg" xmlns:xlink="http://www.w3.org/1999/xlink" x="0px" y="0px"
	 viewBox="0 0 94 96" style="enable-background:new 0 0 94 96;" xml:space="preserve">
<style type="text/css">
	.st0{fill:url(#SVGID_1_);}
	.st1{fill:url(#SVGID_2_);}
	.st2{fill:url(#SVGID_3_);}
	.st3{fill:url(#SVGID_4_);}
	.st4{fill:url(#SVGID_5_);}
	.st5{fill:url(#SVGID_6_);}
	.st6{fill:url(#SVGID_7_);}
	.st7{fill:url(#SVGID_8_);}
	.st8{fill:url(#SVGID_9_);}
	.st9{fill:url(#SVGID_10_);}
	.st10{fill:url(#SVGID_11_);}
	.st11{fill:url(#SVGID_12_);}
	.st12{fill:url(#SVGID_13_);}
	.st13{fill:url(#SVGID_14_);}
	.st14{fill:url(#SVGID_15_);}
	.st15{fill:url(#SVGID_16_);}
	.st16{fill:url(#SVGID_17_);}
	.st17{fill:url(#SVGID_18_);}
</style>
<g>
	<linearGradient id="SVGID_1_" gradientUnits="userSpaceOnUse" x1="46.8813" y1="101.6782" x2="46.8813" y2="0.6468">
		<stop  offset="9.318689e-02" style="stop-color:#2E2EFF"/>
		<stop  offset="0.5204" style="stop-color:#2C79FF"/>
	</linearGradient>
	<path class="st0" d="M3.9,74.3v8.6c0,6.2,5,11.3,11.2,11.3h63.6c6.2,0,11.2-5,11.2-11.3V34.1l0,0C89.5,34.9,70.4,74.3,3.9,74.3z"/>
	<linearGradient id="SVGID_2_" gradientUnits="userSpaceOnUse" x1="46.8715" y1="124.6358" x2="46.8715" y2="-61.182">
		<stop  offset="0.2832" style="stop-color:#2E2EFF"/>
		<stop  offset="0.6627" style="stop-color:#2C79FF"/>
	</linearGradient>
	<path class="st1" d="M89.8,34L54.2,2.9c-4.2-3.7-10.5-3.7-14.7,0L3.9,34l-0.1,0.1v40.3C70.4,74.3,89.5,34.9,89.8,34L89.8,34z
		 M58.1,56.6c0,4.2-3.3,7.5-7.5,7.5h-7.5c-4.1,0-7.5-3.4-7.5-7.5V49c0-4.2,3.3-7.5,7.5-7.5h7.5c4.1,0,7.5,3.4,7.5,7.5V56.6z"/>
</g>
</svg>
