<svg xmlns="http://www.w3.org/2000/svg" xmlns:xlink="http://www.w3.org/1999/xlink" width="40" height="40" viewBox="0 0 40 40">
  <defs>
    <style>
      .cls-1 {
        fill: #fafafa;
      }

      .cls-2 {
        clip-path: url(#clip-path);
      }

      .cls-3 {
        clip-path: url(#clip-path-2);
      }

      .cls-4 {
        fill: #276ded;
      }

      .cls-5 {
        fill: #031e2f;
      }
    </style>
    <clipPath id="clip-path">
      <rect id="矩形_279" data-name="矩形 279" class="cls-1" width="40" height="40" transform="translate(0)"/>
    </clipPath>
    <clipPath id="clip-path-2">
      <rect id="矩形_278" data-name="矩形 278" width="39.504" height="40"/>
    </clipPath>
  </defs>
  <g id="蒙版组_30" data-name="蒙版组 30" class="cls-2">
    <g id="about" transform="translate(0.248)">
      <g id="组_41" data-name="组 41" class="cls-3">
        <g id="组件">
          <circle id="椭圆_24" class="cls-4" cx="10.579" cy="10.579" r="10.579" transform="translate(18.347 18.843)"/>
          <g id="组_156">
            <path id="路径_711" class="cls-5" d="M38.843,40H0V36.2a7.285,7.285,0,0,1,1.24-4.05,9.655,9.655,0,0,1,2.893-2.893,14.205,14.205,0,0,1,4.793-1.9l.413-.083L11.9,26.86a6.477,6.477,0,0,0,1.157-.413l-.165-.826a6.247,6.247,0,0,0-1.9-4.132,4.35,4.35,0,0,1-1.322-1.653,7.99,7.99,0,0,1-1.4-4.545,3.216,3.216,0,0,1,.579-1.9,18.272,18.272,0,0,1-.083-5.62,8.572,8.572,0,0,1,2.314-4.545V2.893A3,3,0,0,1,13.306.165L13.554,0H17.6c6.612.5,9.587,2.81,10.5,3.8A10.034,10.034,0,0,1,30,7.686a.625.625,0,0,0,.083.331,31.953,31.953,0,0,1,.248,3.967,6.255,6.255,0,0,1-.083,1.24,2.98,2.98,0,0,1,.5,1.653v.744a8.75,8.75,0,0,1-1.488,4.545,3.976,3.976,0,0,1-.744.909l-.165.165-.083.248-.331.413a7.093,7.093,0,0,0-2.066,4.05v.744c.248.083.661.248,1.24.413a10.592,10.592,0,0,0,2.231.413h.248a11.944,11.944,0,0,1,5.041,1.818,1.141,1.141,0,0,1,.331.248,8.1,8.1,0,0,1,2.81,2.975,9.221,9.221,0,0,1,.909,3.884V40ZM3.884,36.116H34.959a4.982,4.982,0,0,0-.5-1.9,5.009,5.009,0,0,0-1.653-1.57,8.8,8.8,0,0,0-3.554-1.322,11.109,11.109,0,0,1-3.306-.579,10.789,10.789,0,0,1-1.57-.579,3.781,3.781,0,0,1-2.314-3.471V25.7a10.411,10.411,0,0,1,2.975-6.364l.248-.248a3.236,3.236,0,0,1,.661-.826l.165-.165.083-.165a4.172,4.172,0,0,0,.744-1.9h-.661V13.554l.083-.331a6.38,6.38,0,0,0,.165-1.24c0-1.157-.083-2.231-.165-3.388a5.118,5.118,0,0,0-.909-2.066c-.413-.413-2.562-2.314-8.1-2.727H15.124v.744l-1.24,1.24a5.2,5.2,0,0,0-1.322,2.479,13.831,13.831,0,0,0,.165,4.876l.083.248v1.322l-.579.579-.165.165a4.609,4.609,0,0,0,.826,2.314l.165.248c.083.165.165.248.165.413l.248.083.248.331c1.322,1.57,3.058,3.636,3.058,6.86v.826A3.7,3.7,0,0,1,14.463,30a10.467,10.467,0,0,1-1.488.5,1.048,1.048,0,0,1-.5.083l-2.562.5A12.574,12.574,0,0,0,6.446,32.4,5.528,5.528,0,0,0,4.711,34.05l-.165.248A2.888,2.888,0,0,0,3.884,36.116Z"/>
          </g>
        </g>
      </g>
    </g>
  </g>
</svg>
