<svg id="图层_1" data-name="图层 1" xmlns="http://www.w3.org/2000/svg" xmlns:xlink="http://www.w3.org/1999/xlink" viewBox="0 0 47.85 48.4"><defs><style>.cls-1{fill:none;}.cls-2{clip-path:url(#clip-path);}.cls-3{fill:#60b5f4;}.cls-4{fill:#031e2f;}</style><clipPath id="clip-path" transform="translate(-1.01 -1)"><rect class="cls-1" x="1.01" y="1" width="47.85" height="48.4"/></clipPath></defs><title>我们</title><g class="cls-2"><g id="组件"><circle id="椭圆_24" data-name="椭圆 24" class="cls-3" cx="35.05" cy="35.6" r="12.8"/><g id="组_156" data-name="组 156"><path id="路径_711" data-name="路径 711" class="cls-4" d="M48,49.4H1V44.79a9.07,9.07,0,0,1,1.45-4.87A11.25,11.25,0,0,1,5.91,36.4a18.48,18.48,0,0,1,5.75-2.34l.53-.11,3.11-.52a13.31,13.31,0,0,0,1.4-.49L16.63,32c0-2.13-1.12-3.56-2.34-5a5.32,5.32,0,0,1-1.6-2A9.88,9.88,0,0,1,11,19.52a4.31,4.31,0,0,1,.7-2.34,22.09,22.09,0,0,1-.11-6.79A10.7,10.7,0,0,1,14.38,4.9a3.1,3.1,0,0,1,0-.43,3.68,3.68,0,0,1,2.73-3.35L17.45,1h4.9c8,.57,11.56,3.43,12.73,4.64a10.7,10.7,0,0,1,2.31,4.7c0,.12,0,.23.07.36a30.11,30.11,0,0,1,.3,4.84A11.32,11.32,0,0,1,37.7,17a3.27,3.27,0,0,1,.63,2v.85a10.45,10.45,0,0,1-1.76,5.49,5,5,0,0,1-.91,1.13l-.18.2-.24.36-.41.48a8.15,8.15,0,0,0-2.46,4.94v.89c.31.09.81.27,1.46.46a9.84,9.84,0,0,0,2.74.47l.28,0A15.54,15.54,0,0,1,43,36.48a3.18,3.18,0,0,1,.43.28,10.8,10.8,0,0,1,3.43,3.59A10.91,10.91,0,0,1,48,45.09ZM5.68,44.73H43.31a6.12,6.12,0,0,0-.6-2.3,7.21,7.21,0,0,0-2-1.93,11,11,0,0,0-4.27-1.61,14.57,14.57,0,0,1-4-.68c-.77-.24-1.41-.47-1.9-.67A4.56,4.56,0,0,1,27.7,33.3V32.1a12.59,12.59,0,0,1,3.56-7.66l.25-.29a5.56,5.56,0,0,1,.84-1,1.07,1.07,0,0,0,.18-.19l.14-.22a5.55,5.55,0,0,0,.91-2.27h-.78v-3l.12-.36a5,5,0,0,0,.17-1.54,27.93,27.93,0,0,0-.24-4.08A6.77,6.77,0,0,0,31.79,9c-.49-.5-3.06-2.81-9.77-3.29H19.31v.9L17.77,8.11a6.3,6.3,0,0,0-1.6,2.9,16.15,16.15,0,0,0,.21,5.88l.09.32v1.57l-.68.69-.17.18a5.28,5.28,0,0,0,1,2.78l.19.3a4.6,4.6,0,0,0,.24.45l.29.15.31.37c1.59,1.91,3.66,4.4,3.66,8.32v1a4.57,4.57,0,0,1-2.81,4.24,17.45,17.45,0,0,1-1.8.64q-.32.09-.63.15l-3.11.51a16.41,16.41,0,0,0-4.22,1.58,7.77,7.77,0,0,0-2.15,2l-.15.25A4.65,4.65,0,0,0,5.68,44.73Z" transform="translate(-1.01 -1)"/></g></g></g></svg>