<svg xmlns="http://www.w3.org/2000/svg" xmlns:xlink="http://www.w3.org/1999/xlink" width="40" height="40" viewBox="0 0 40 40">
  <defs>
    <style>
      .cls-1 {
        fill: #fafafa;
      }

      .cls-2 {
        clip-path: url(#clip-path);
      }

      .cls-3 {
        fill: #276ded;
      }

      .cls-4 {
        fill: #031e2f;
      }
    </style>
    <clipPath id="clip-path">
      <rect id="矩形_277" data-name="矩形 277" class="cls-1" width="40" height="40" transform="translate(0)"/>
    </clipPath>
  </defs>
  <g id="蒙版组_29" data-name="蒙版组 29" class="cls-2">
    <g id="推广" transform="translate(0.739 0)">
      <circle id="椭圆_22_1_" class="cls-3" cx="10.103" cy="10.103" r="10.103" transform="translate(18.316 19.795)"/>
      <path id="路径_95" data-name="路径 95" class="cls-4" d="M12.112,42.308H9.237a3.3,3.3,0,0,1-3.285-3.285V30.645A3.3,3.3,0,0,1,9.237,27.36h2.875a3.226,3.226,0,0,1,3.2,3.285v8.542A3.138,3.138,0,0,1,12.112,42.308Zm-2.382-3.7H11.7V31.056H9.73S9.73,38.612,9.73,38.612Z" transform="translate(-1.352 -2.39)"/>
      <path id="路径_96" data-name="路径 96" class="cls-4" d="M16.994,29.033H5.166A4.246,4.246,0,0,1,.977,24.926v-11.5A4.154,4.154,0,0,1,5.166,9.238H16.994ZM5.166,12.934a.436.436,0,0,0-.493.493v11.5a.46.46,0,0,0,.493.411H13.3v-12.4Z" transform="translate(-0.977 -1.025)"/>
      <path id="路径_97" data-name="路径 97" class="cls-4" d="M32.946,36.823,14.3,27.953V9.308L32.946.355ZM18,25.653l11.17,5.339V6.269L18,11.608Z" transform="translate(-1.981 -0.355)"/>
      <path id="路径_98" data-name="路径 98" class="cls-4" d="M36.629,26.743h-6.16v-15.2h6.16a4.19,4.19,0,0,1,4.107,4.189v6.982A4,4,0,0,1,36.629,26.743Zm-2.464-3.7h2.464a.388.388,0,0,0,.411-.411V15.655a.533.533,0,0,0-.411-.493H34.165Z" transform="translate(-3.2 -1.199)"/>
    </g>
  </g>
</svg>
