<svg id="图层_1" data-name="图层 1" xmlns="http://www.w3.org/2000/svg" xmlns:xlink="http://www.w3.org/1999/xlink" viewBox="0 0 47.99 49.09"><defs><style>.cls-1{fill:none;}.cls-2{clip-path:url(#clip-path);}.cls-3{fill:#60b5f4;}.cls-4{fill:#031e2f;}</style><clipPath id="clip-path" transform="translate(-1.01 -0.38)"><rect class="cls-1" x="1.01" y="0.38" width="47.99" height="49.09"/></clipPath></defs><title>毕业资格</title><g class="cls-2"><g id="组件"><circle id="椭圆_22" data-name="椭圆 22" class="cls-3" cx="35.66" cy="36.4" r="12.33"/><g id="组_144" data-name="组 144"><g id="组_141" data-name="组 141"><g id="组_139" data-name="组 139"><path id="路径_700" data-name="路径 700" class="cls-4" d="M24.83,36,1,18.2,24.79.38,49,17.85ZM8.52,18.19l16.3,12.17L41.41,17.92,24.84,6Z" transform="translate(-1.01 -0.38)"/></g><g id="组_140" data-name="组 140"><path id="路径_701" data-name="路径 701" class="cls-4" d="M25.2,49.47c-8.78,0-14.91-4.71-14.91-11.44V24.48h4.5V38c0,4.77,5.4,6.94,10.41,6.94S35.6,42.8,35.6,38v-14h4.5V38C40.1,44.76,34,49.47,25.2,49.47Z" transform="translate(-1.01 -0.38)"/></g></g><g id="组_143" data-name="组 143"><g id="组_142" data-name="组 142"><rect id="矩形_1447" data-name="矩形 1447" class="cls-4" x="0.66" y="24.56" width="4.5" height="10.72"/></g></g></g></g></g></svg>