<svg id="校网流量" xmlns="http://www.w3.org/2000/svg" xmlns:xlink="http://www.w3.org/1999/xlink" width="15.245" height="18.56" viewBox="0 0 15.245 18.56">
  <defs>
    <style>
      .cls-1 {
        clip-path: url(#clip-path);
      }

      .cls-2 {
        fill: #60b5f4;
      }

      .cls-3 {
        fill: #276ded;
      }

      .cls-4 {
        fill: #031e2f;
      }
    </style>
    <clipPath id="clip-path">
      <rect id="矩形_173" data-name="矩形 173" width="15.202" height="15.202"/>
    </clipPath>
  </defs>
  <g id="组_27" data-name="组 27" transform="translate(0.021 3.336)">
    <g id="组_26" data-name="组 26">
      <g id="校网流量-2" data-name="校网流量" class="cls-1">
        <path id="路径_946" class="cls-2" d="M5.538,35.577s3.083-4.181,6.989-.8c3.78,2.914,5.616-.95,5.616-.95s2.365,6.63-5,7.939S5.2,36.231,5.2,36.231Z" transform="translate(-4.313 -30.15)"/>
        <path id="路径_19" data-name="路径 19" class="cls-3" d="M16.034,49.865a5.33,5.33,0,0,1-.992-.465l-.127-.127v.021a4.641,4.641,0,0,0-3.294-1.5c-1.816-.063-4.666,2.555-6.1,2.724-1.731.211-1.921-.823-3.231-1.225V49.21a2.764,2.764,0,0,1-.57-.4c-.19-.169-.422-.3-.612-.465-.021-.021-.042-.042-.063-.042-.021.232-.042.486-.042.76a7.6,7.6,0,0,0,15.16.823C16.118,49.886,16.076,49.865,16.034,49.865Z" transform="translate(-1 -41.461)"/>
      </g>
    </g>
  </g>
  <path id="路径_20" data-name="路径 20" class="cls-4" d="M8.522,20.56A7.633,7.633,0,0,1,.9,12.937C.9,7.025,7.889,2.422,8.185,2.232L8.522,2l.338.232c.3.19,7.285,4.793,7.285,10.705A7.633,7.633,0,0,1,8.522,20.56Zm0-17.018c-1.372.971-6.355,4.877-6.355,9.4a6.355,6.355,0,1,0,12.711,0C14.878,8.419,9.895,4.513,8.522,3.541Z" transform="translate(-0.9 -2)"/>
</svg>
