<svg id="图层_1" data-name="图层 1" xmlns="http://www.w3.org/2000/svg" viewBox="0 0 32 32"><defs><style>.cls-1{fill:#2c79ff;}.cls-2{fill:#ffc756;}</style></defs><title>收藏-激活</title><path class="cls-1" d="M16,0V2.25a.18.18,0,0,1,.1,0,.2.2,0,0,0,0,.08l3.69,7.81a2.21,2.21,0,0,0,1.57,1.22l8.25,1.5.08,0a.09.09,0,0,1,.05,0,.61.61,0,0,0,0,.13.2.2,0,0,1,0,.21l-5.9,5.78a2.32,2.32,0,0,0-.65,2.05l1.51,8.41h0a.22.22,0,0,1-.1.19l0,0a.55.55,0,0,1-.13,0L17,25.79a2.08,2.08,0,0,0-1-.24,2,2,0,0,0-1,.24l-7.56,3.9-.06,0H7.32a.29.29,0,0,1-.09-.17h0l1.56-8.41a2.34,2.34,0,0,0-.65-2.08l-5.9-5.71a.45.45,0,0,1-.08-.27A.19.19,0,0,1,2.22,13l0,0,.11,0,8.25-1.56a2.18,2.18,0,0,0,1.56-1.22l3.69-7.79c.05-.1.12-.13.14-.13V0m0,0a2.37,2.37,0,0,0-2.08,1.38l-3.69,7.8L2,10.74a2.34,2.34,0,0,0-1.9,1.68A2.75,2.75,0,0,0,.72,15l6,5.77-1.56,8.4A2.52,2.52,0,0,0,6,31.52,2.16,2.16,0,0,0,7.38,32a2.25,2.25,0,0,0,1.07-.28L16,27.8l7.5,3.9a2.53,2.53,0,0,0,1.1.3,2,2,0,0,0,1.32-.48,2.47,2.47,0,0,0,.93-2.4l-1.5-8.4,5.94-5.83a2.5,2.5,0,0,0,.58-2.52A2.27,2.27,0,0,0,30,10.69l-8.25-1.5L18.09,1.38A2.29,2.29,0,0,0,16,0Z" transform="translate(0)"/><path class="cls-2" d="M24.61,32a2.53,2.53,0,0,1-1.1-.3L16,27.8,8.45,31.7A2.22,2.22,0,0,1,6,31.52a2.52,2.52,0,0,1-.92-2.4l1.55-8.41L.72,15a2.73,2.73,0,0,1-.63-2.52A2.33,2.33,0,0,1,2,10.75l8.25-1.56,3.69-7.81A2.37,2.37,0,0,1,16,0a2.29,2.29,0,0,1,2.08,1.38l3.69,7.81L30,10.69a2.25,2.25,0,0,1,1.85,1.68,2.52,2.52,0,0,1-.58,2.52l-5.94,5.82,1.5,8.41a2.47,2.47,0,0,1-.93,2.4A2,2,0,0,1,24.61,32Z" transform="translate(0)"/></svg>