<svg id="图层_1" data-name="图层 1" xmlns="http://www.w3.org/2000/svg" viewBox="0 0 32 32"><defs><style>.cls-1{fill:#2c79ff;}</style></defs><title>分享按钮</title><path class="cls-1" d="M15.7,9.62c-1.48,1.77-2.2,4.45-2.2,8.23a1.83,1.83,0,0,0,3.65,0c0-5.55,1.29-7.24,5.54-7.24h.54a1.83,1.83,0,0,0,2.95,2.06h0l2.26-2.27a2.28,2.28,0,0,0,0-3.22L26.17,4.92A1.79,1.79,0,0,0,24.9,4.4h0A1.82,1.82,0,0,0,23.24,7h-.55C19.48,7,17.19,7.84,15.7,9.62Z"/><path class="cls-1" d="M30.16,14.16A1.84,1.84,0,0,0,28.31,16,12.31,12.31,0,1,1,16,3.69h0A1.85,1.85,0,1,0,16,0,16,16,0,1,0,32,16,1.84,1.84,0,0,0,30.16,14.16Z"/></svg>