<svg xmlns="http://www.w3.org/2000/svg" xmlns:xlink="http://www.w3.org/1999/xlink" width="249" height="249" viewBox="0 0 249 249"><defs><style>.a{fill:none;}.b{fill:#fff;}.c{fill:#707070;font-size:20px;font-family:PingFangSC-Semibold, PingFang SC;font-weight:600;}.d{clip-path:url(#c);}.e{fill:#2c79ff;}.f{fill:#6cd0d8;}.g{filter:url(#a);}</style><filter id="a" x="0" y="0" width="249" height="249" filterUnits="userSpaceOnUse"><feOffset dx="6" dy="8" input="SourceAlpha"/><feGaussianBlur stdDeviation="15" result="b"/><feFlood flood-color="#828385" flood-opacity="0.502"/><feComposite operator="in" in2="b"/><feComposite in="SourceGraphic"/></filter><clipPath id="c"><rect class="a" width="58" height="58"/></clipPath></defs><g transform="translate(-502 -992)"><g transform="translate(266 -541)"><g class="g" transform="matrix(1, 0, 0, 1, 236, 1533)"><circle class="b" cx="79.5" cy="79.5" r="79.5" transform="translate(39 37)"/></g><text class="c" transform="translate(315 1677)"><tspan x="0" y="21">我的收藏</tspan></text></g><g class="d" transform="translate(592 1060.51)"><path class="e" d="M41.778,42.99a1.208,1.208,0,0,1,1.212-1.212H98.567a1.208,1.208,0,0,1,1.211,1.212V99.778l-29-7.733-29,7.733Zm42.371,40.39L81.741,72.626l7.977-7.206a3.071,3.071,0,0,0,.865-3.162,2.958,2.958,0,0,0-2.562-2.115l-10.445-.92L73.5,49.085a2.918,2.918,0,0,0-5.446,0L63.98,59.226l-10.446.918a2.961,2.961,0,0,0-2.562,2.116,3.075,3.075,0,0,0,.865,3.16l7.975,7.208L57.4,83.381a3.061,3.061,0,0,0,1.079,3.075,2.885,2.885,0,0,0,3.341.17l8.954-5.67,8.951,5.671a2.888,2.888,0,0,0,3.337-.17,3.066,3.066,0,0,0,1.083-3.078Z" transform="translate(-41.778 -41.778)"/><path class="f" d="M282.843,227.429l.782-.712,7.736-7.046-11.206-.994-.414-1.036-3.834-9.619-4.25,10.656-1.1.1-10.1.9,8.516,7.758-.23,1.036-2.3,10.339,9.468-6.043.967.616,8.5,5.427Z" transform="translate(-246.907 -197.818)"/></g></g></svg>